<svg width="1200" height="1200" viewBox="0 0 1200 1200" fill="none" xmlns="http://www.w3.org/2000/svg">
<rect width="1200" height="1200" rx="60" fill="#00020A"/>
<rect x="681.869" y="394.8" width="81.9239" height="81.9239" fill="#F8F9FA"/>
<rect x="763.792" y="476.724" width="81.9239" height="81.9239" fill="#F8F9FA"/>
<rect x="845.717" y="558.648" width="81.9239" height="81.9239" fill="#F8F9FA"/>
<rect x="763.792" y="640.572" width="81.9239" height="81.9239" fill="#F8F9FA"/>
<rect x="681.869" y="722.496" width="81.9239" height="81.9239" fill="#F8F9FA"/>
<rect x="518.021" y="804.419" width="81.9239" height="81.9239" transform="rotate(-180 518.021 804.419)" fill="#F8F9FA"/>
<rect x="436.098" y="722.496" width="81.9239" height="81.9239" transform="rotate(-180 436.098 722.496)" fill="#F8F9FA"/>
<rect x="354.174" y="640.572" width="81.9239" height="81.9239" transform="rotate(-180 354.174 640.572)" fill="#F8F9FA"/>
<rect x="436.098" y="558.648" width="81.9239" height="81.9239" transform="rotate(-180 436.098 558.648)" fill="#F8F9FA"/>
<rect x="518.021" y="476.724" width="81.9239" height="81.9239" transform="rotate(-180 518.021 476.724)" fill="#F8F9FA"/>
<rect x="681.869" y="681.534" width="163.848" height="163.848" transform="rotate(-180 681.869 681.534)" fill="#F8F9FA"/>
</svg>
